<?xml version="1.0" encoding="UTF-8"?>
<!DOCTYPE svg PUBLIC "-//W3C//DTD SVG 1.1//EN" "http://www.w3.org/Graphics/SVG/1.1/DTD/svg11.dtd">
<svg version="1.1" xmlns="http://www.w3.org/2000/svg" xmlns:xlink="http://www.w3.org/1999/xlink" x="0" y="0" width="645" height="190" viewBox="0, 0, 645, 190">
  <g id="Layer_1">
    <g>
      <path d="M82.456,181.141 L82.457,181.143 C106.493,183.662 117.391,177.399 131.802,173.619 C154.961,167.539 160.257,189.178 160.257,189.178 L160.257,116.012 C151.34,151.69 120.242,178.563 82.456,181.141" fill="#B69763"/>
      <path d="M160.257,74 L160.257,0.822 C160.257,0.822 154.961,22.476 131.802,16.393 C117.391,12.61 106.493,6.345 82.457,8.865 L82.452,8.869 C120.24,11.445 151.34,38.325 160.257,74" fill="#B69763"/>
      <path d="M33.083,95.006 C33.083,58.654 58.631,28.273 92.754,20.83 C87.518,19.688 82.075,19.078 76.495,19.078 C34.562,19.078 0.571,53.072 0.571,95.006 C0.571,136.942 34.562,170.934 76.495,170.934 C82.075,170.934 87.518,170.326 92.754,169.184 C58.631,161.74 33.083,131.359 33.083,95.006" fill="#B69763"/>
      <path d="M228.584,80.114 C224.266,84.74 222.884,90.899 223.032,95.121 C223.267,101.858 225.664,107.174 230.154,110.926 C234.732,114.761 240.465,116.422 248.193,116.153 C251.386,116.042 255.609,115.568 257.878,114.564 C258.922,114.054 259.06,113.888 259.362,112.787 C259.842,110.928 260.323,106.24 260.309,105.834 C260.275,104.869 259.83,104.781 259.639,104.788 C259.04,104.808 258.955,105.378 258.887,105.832 C258.763,106.776 258.171,109.089 257.128,110.259 C254.978,112.621 251.513,113.055 248.088,113.174 C236.155,113.592 228.68,104.01 228.348,94.509 C228.188,89.939 228.569,84.707 232.603,80.561 C235.172,77.881 239.097,76.484 244.604,76.291 C249.448,76.122 253.517,77.538 255.248,78.924 C256.576,79.969 257.515,82.049 257.586,84.106 C257.607,84.724 257.635,85.494 258.323,85.47 C258.975,85.448 258.998,84.623 259.015,84.072 C259.015,84.068 259.145,75.537 259.145,75.537 C259.124,74.97 258.757,74.804 258.211,74.725 C255.948,74.395 250.806,73.647 244.891,73.738 C237.824,73.839 232.489,75.924 228.584,80.114" fill="#FFFFFF"/>
      <path d="M295.894,73.873 C280.329,73.873 274.528,86.877 274.528,95.08 C274.528,105.338 281.112,116.379 295.568,116.379 C308.103,116.379 317.202,107.055 317.202,94.212 C317.202,82.047 308.639,73.873 295.894,73.873 z M297.016,113.828 C287.076,113.828 280.134,105.498 280.134,93.573 C280.134,82.864 286.028,76.207 295.517,76.207 C303.235,76.207 311.541,82.31 311.541,95.716 C311.541,112.952 299.442,113.828 297.016,113.828" fill="#FFFFFF"/>
      <path d="M404.682,77.266 C407.504,77.366 407.936,78.342 408.254,79.055 C408.487,79.627 408.549,80.468 408.549,80.874 C408.549,81.671 408.924,81.842 409.24,81.842 C409.69,81.842 409.818,81.259 409.865,81.038 C409.87,81.014 410.561,74.96 410.561,74.96 C410.561,74.706 410.458,74.491 410.286,74.35 C410.154,74.244 409.999,74.203 409.861,74.23 C408.299,74.639 407.059,74.61 407.047,74.61 L386.559,74.612 C386.254,74.612 385.444,74.618 385.444,75.303 C385.444,75.64 385.733,75.884 386.129,75.884 C386.586,75.884 387.477,75.939 387.891,76.041 C389.447,76.363 389.729,76.997 389.842,78.858 C389.842,78.88 389.842,111.672 389.842,111.769 C389.842,113.284 389.389,114.138 388.493,114.312 C387.9,114.445 387.319,114.521 386.932,114.521 C386.46,114.521 386.247,114.815 386.247,115.104 C386.247,115.799 387.057,115.799 387.365,115.799 L408.003,115.799 C410.092,115.799 410.721,115.799 411.146,114.205 C411.426,113.044 411.852,109.372 411.852,108.944 C411.852,108.549 411.852,107.883 411.271,107.883 C410.719,107.883 410.615,108.467 410.534,108.897 C410.172,111.03 409.559,112.019 408.276,112.56 C406.936,113.135 404.616,113.135 403.232,113.135 C397.96,113.135 395.271,112.4 395.122,108.989 L395.122,95.273 L405.059,95.277 C407.107,95.277 407.389,96.256 407.596,96.97 C407.801,97.623 407.801,98.128 407.801,98.665 C407.801,99.113 408.049,99.402 408.43,99.402 C409.008,99.402 409.029,98.961 409.053,98.403 L409.71,91.723 C409.71,91.054 409.309,91.004 409.186,91.004 C408.875,91.004 408.654,91.256 408.318,91.639 L408.182,91.79 C407.783,92.241 407.331,92.455 405.861,92.455 L395.122,92.455 L395.122,77.266 L404.682,77.266" fill="#FFFFFF"/>
      <path d="M427.678,84.344 C427.805,87.962 429.92,91.062 435.936,95.667 L438.418,97.56 C443.315,101.323 444.864,103.463 444.985,106.948 C445.106,110.357 442.508,113.734 437.651,113.903 C435.666,113.972 429.854,113.662 428.721,108.956 C428.543,108.237 428.518,107.509 428.503,107.032 C428.491,106.733 428.473,106.187 427.84,106.209 C427.258,106.23 427.215,106.938 427.194,107.318 C427.192,107.332 427.128,113.016 427.128,113.016 C427.176,114.453 427.229,114.844 428.147,115.258 L428.149,115.256 C430.207,116.183 433.686,116.542 436.557,116.441 C439.797,116.328 443.026,115.279 445.202,113.812 C449.114,111.171 449.878,107.371 449.78,104.573 C449.635,100.428 447.498,97.078 440.696,92.095 C440.694,92.096 439.157,90.971 439.157,90.971 C433.842,86.916 432.079,85.473 431.979,82.64 C431.856,79.081 434.753,76.361 438.534,76.228 C443.043,76.072 445.909,77.869 446.379,78.667 C446.69,79.179 447.059,80.575 447.139,81.214 C447.208,81.631 447.29,82.142 447.856,82.123 C448.487,82.1 448.459,81.129 448.442,80.609 C448.442,80.613 448.448,74.936 448.448,74.936 C448.424,74.297 447.868,74.317 447.631,74.325 C447.213,74.341 446.801,74.221 445.805,74.119 C443.854,73.884 441.356,73.742 439.465,73.808 C432.583,74.048 427.469,78.336 427.678,84.344" fill="#FFFFFF"/>
      <path d="M524.827,73.873 C509.262,73.873 503.463,86.877 503.463,95.08 C503.463,105.338 510.047,116.379 524.506,116.379 C537.038,116.379 546.135,107.055 546.135,94.212 C546.135,82.047 537.573,73.873 524.827,73.873 z M525.95,113.828 C516.01,113.828 509.069,105.498 509.069,93.573 C509.069,82.864 514.963,76.207 524.452,76.207 C532.172,76.207 540.485,82.31 540.485,95.716 C540.485,112.952 528.377,113.828 525.95,113.828" fill="#FFFFFF"/>
      <path d="M566.255,77.288 C560.576,80.856 557.185,87.524 557.185,95.121 C557.185,102.401 560.667,108 563.649,110.581 C568.047,114.429 574.032,116.379 581.438,116.379 C584.774,116.379 589.542,115.737 592.922,113.937 C593.724,113.458 593.748,113.182 593.748,110.817 L593.748,99.252 C593.851,97.447 594.359,96.683 595.623,96.45 C595.622,96.45 596.919,96.299 596.919,96.299 C597.32,96.299 597.61,96.051 597.61,95.716 C597.61,95.033 596.823,95.033 596.49,95.033 L585.188,95.033 C584.854,95.033 584.071,95.033 584.071,95.716 C584.071,96.051 584.365,96.299 584.766,96.299 C585.253,96.299 586.133,96.35 586.518,96.446 C588.456,96.978 588.735,97.342 588.735,101.717 L588.735,110.817 C588.735,111.601 588.438,112.125 587.795,112.463 C586.498,113.219 583.86,113.557 581.815,113.557 C576.474,113.557 571.813,111.656 567.964,107.9 C566.024,106.017 562.357,100.542 562.357,93.248 C562.357,87.446 564.304,82.435 567.563,79.845 C571.446,76.792 575.292,76.371 578.869,76.371 C585.495,76.371 589.86,78.492 591.244,80.595 C592.141,82.025 592.302,83.682 592.326,84.002 C592.375,84.468 592.44,85.046 592.956,85.046 C593.696,85.046 593.696,84.246 593.696,83.665 C593.696,83.671 594.07,76.068 594.07,76.068 C594.07,75.756 593.917,75.388 593.198,75.321 C591.765,75.26 589.92,75.03 588.893,74.79 C588.427,74.69 584.313,73.873 580.635,73.873 C576.492,73.873 571.112,74.259 566.255,77.288" fill="#FFFFFF"/>
      <path d="M628.382,99.836 C628.382,99.839 633.543,113.374 633.543,113.374 C633.632,113.604 633.698,113.853 633.698,114.005 C633.698,114.502 633.437,114.537 633.378,114.554 C633.041,114.633 632.833,114.862 632.833,115.178 C632.833,115.714 633.435,115.743 634.431,115.79 L643.101,115.788 C644.201,115.788 644.429,115.468 644.429,115.151 C644.429,114.568 643.833,114.568 643.638,114.568 C642.857,114.568 642.182,114.468 641.58,114.259 C640.543,113.967 638.964,113.034 637.054,108.302 C634.672,102.368 624.531,75.959 624.531,75.959 C623.871,74.242 623.619,73.873 623.117,73.873 C622.591,73.873 622.336,74.354 621.689,76.132 L609.513,109.558 C608.484,112.416 607.453,114.129 605.224,114.416 C605.22,114.418 603.707,114.521 603.707,114.521 C603.268,114.521 602.961,114.764 602.961,115.104 C602.961,115.799 603.854,115.799 604.236,115.799 L614.47,115.799 C615.392,115.799 615.531,115.364 615.531,115.104 C615.531,114.887 615.427,114.521 614.74,114.521 L614.197,114.521 C613.515,114.521 612.427,114.174 612.427,113.235 C612.427,112.55 616.479,99.836 616.479,99.836 L628.382,99.836 z M616.976,97.39 L621.857,82.521 L627.104,97.39 L616.976,97.39" fill="#FFFFFF"/>
      <path d="M487.733,77.552 C490.92,77.611 492.268,78.043 493.081,79.262 C493.633,80.109 493.795,80.474 493.965,80.86 C494.096,81.212 494.29,81.567 494.743,81.567 C494.997,81.567 495.274,81.376 495.274,80.829 C495.274,80.22 494.042,75.063 494.042,75.063 C493.85,74.317 493.715,73.824 493.295,73.982 L492.618,74.248 C492.147,74.417 491.801,74.551 490.94,74.62 L464.434,74.62 C463.571,74.551 463.227,74.417 462.756,74.246 L462.079,73.982 C461.659,73.822 461.524,74.317 461.332,75.061 C461.332,75.061 460.1,80.22 460.1,80.829 C460.1,81.374 460.376,81.567 460.631,81.567 C461.084,81.567 461.278,81.212 461.407,80.858 C461.577,80.474 461.739,80.109 462.293,79.262 C463.104,78.043 464.454,77.609 467.643,77.552 L475.209,77.545 L475.209,99.858 C475.209,104.952 475.209,109.35 474.942,111.589 C474.717,113.225 474.436,114.144 473.598,114.312 C473.016,114.441 472.434,114.519 472.038,114.519 C471.532,114.519 471.352,114.833 471.352,115.1 C471.352,115.788 472.131,115.788 472.465,115.788 L482.924,115.788 C483.258,115.788 484.04,115.788 484.04,115.1 C484.04,114.833 483.858,114.519 483.352,114.519 C482.959,114.519 482.381,114.441 481.805,114.312 C480.959,114.144 480.684,113.26 480.448,111.584 C480.184,109.35 480.184,104.952 480.184,99.858 L480.184,77.545 L487.733,77.552" fill="#FFFFFF"/>
      <path d="M329.803,74.61 C329.073,74.61 328.471,74.61 328.471,75.247 C328.471,75.664 328.708,75.805 329.161,75.877 C329.458,75.924 329.739,75.986 330.77,76.138 C332.209,76.392 332.606,76.776 332.659,80.242 L332.676,107.668 C332.676,112.554 332.397,113.902 331.27,114.222 C330.571,114.455 329.688,114.535 329.143,114.535 C328.635,114.535 328.454,114.842 328.454,115.108 C328.454,115.8 329.18,115.8 329.571,115.8 L340.389,115.8 C340.756,115.8 341.618,115.8 341.618,115.108 C341.618,114.831 341.436,114.535 340.928,114.535 C340.782,114.535 339.469,114.523 338.313,114.22 C337.145,113.875 336.528,112.854 336.416,108.248 C336.416,108.248 335.774,84.431 335.739,83.116 C339.612,87.343 362.674,111.988 363.252,112.513 C366.313,115.581 366.811,116.009 367.335,116.009 C368.008,116.009 368.235,115.421 368.235,111.941 L368.18,80.55 C368.18,77.344 368.413,76.363 369.956,76.045 C370.579,75.884 370.932,75.884 371.19,75.884 C371.813,75.884 372.036,75.545 372.036,75.255 C372.036,74.618 371.241,74.618 370.815,74.618 L360.692,74.618 C360.192,74.618 359.36,74.618 359.36,75.255 C359.36,75.672 359.592,75.884 360.047,75.884 C360.401,75.884 361.628,75.933 362.62,76.146 C364.063,76.522 364.454,77.521 364.506,80.987 L364.479,107.521 C363.608,106.559 336.014,76.39 336.014,76.39 C335.258,75.58 334.555,74.61 333.821,74.61 L329.803,74.61" fill="#FFFFFF"/>
      <path d="M236.365,142.12 C236.042,139.753 234,138.787 231.795,138.787 C226.821,138.787 225.316,143.303 225.316,147.28 C225.316,151.262 226.821,155.777 231.795,155.777 C233.946,155.777 236.096,154.701 236.58,152.282 L238.462,152.282 C237.898,155.534 234.914,157.39 231.795,157.39 C225.907,157.39 223.434,152.657 223.434,147.28 C223.434,141.958 225.935,137.174 231.795,137.174 C234.966,137.174 237.978,138.625 238.247,142.12 L236.365,142.12" fill="#FFFFFF"/>
      <path d="M252.628,150.239 C252.628,152.739 251.337,155.912 248.084,155.912 C244.832,155.912 243.541,152.739 243.541,150.239 C243.541,147.739 244.832,144.568 248.084,144.568 C251.337,144.568 252.628,147.739 252.628,150.239 z M248.084,143.087 C243.783,143.087 241.794,146.69 241.794,150.239 C241.794,153.786 243.783,157.39 248.084,157.39 C252.385,157.39 254.375,153.786 254.375,150.239 C254.375,146.69 252.385,143.087 248.084,143.087" fill="#FFFFFF"/>
      <path d="M260.073,156.987 L258.46,156.987 L258.46,146.53 C258.46,145.481 258.379,144.405 258.326,143.491 L259.992,143.491 L260.073,145.481 L260.126,145.534 C261.068,143.867 262.6,143.087 264.349,143.087 C268.755,143.087 269.107,146.986 269.107,148.543 L269.107,156.987 L267.493,156.987 L267.493,148.276 C267.493,145.938 266.148,144.568 263.944,144.568 C261.284,144.568 260.073,146.796 260.073,149.216 L260.073,156.987" fill="#FFFFFF"/>
      <path d="M275.449,156.987 L273.836,156.987 L273.836,146.53 C273.836,145.481 273.755,144.405 273.702,143.491 L275.368,143.491 L275.449,145.481 L275.502,145.534 C276.444,143.867 277.975,143.087 279.723,143.087 C284.133,143.087 284.483,146.986 284.483,148.543 L284.483,156.987 L282.868,156.987 L282.868,148.276 C282.868,145.938 281.525,144.568 279.319,144.568 C276.659,144.568 275.449,146.796 275.449,149.216 L275.449,156.987" fill="#FFFFFF"/>
      <path d="M290.046,149.135 C290.262,146.771 291.659,144.568 294.293,144.568 C297.09,144.568 298.486,146.53 298.674,149.135 L290.046,149.135 z M300.422,150.616 C300.422,146.393 298.781,143.087 294.267,143.087 C290.262,143.087 288.245,146.583 288.245,150.239 C288.245,153.922 290.128,157.39 294.158,157.39 C297.413,157.39 299.427,155.912 300.259,152.685 L298.568,152.685 C298.164,154.539 296.577,155.912 294.669,155.912 C291.362,155.912 290.046,153.492 289.991,150.616 L300.422,150.616" fill="#FFFFFF"/>
      <path d="M313.352,147.63 C313.217,145.562 311.898,144.568 309.668,144.568 C307.196,144.568 305.662,147.148 305.662,150.21 C305.662,153.304 307.196,155.912 309.668,155.912 C311.764,155.912 313.217,154.62 313.352,152.766 L315.099,152.766 C314.667,155.859 312.893,157.39 309.829,157.39 C305.796,157.39 303.915,153.922 303.915,150.239 C303.915,146.583 305.931,143.087 309.936,143.087 C312.705,143.087 314.964,144.754 315.099,147.63 L313.352,147.63" fill="#FFFFFF"/>
      <path d="M320.339,144.97 L317.65,144.97 L317.65,143.491 L320.339,143.491 L320.339,140.614 L321.953,139.916 L321.953,143.491 L325.017,143.491 L325.017,144.97 L321.953,144.97 L321.953,154.001 C321.925,155.239 322.571,155.912 323.806,155.912 C324.291,155.912 324.776,155.884 325.205,155.75 L325.205,157.147 C324.695,157.283 324.103,157.39 323.565,157.39 C320.151,157.39 320.339,155.211 320.339,153.383 L320.339,144.97" fill="#FFFFFF"/>
      <path d="M337.524,156.987 L337.524,137.578 L339.27,137.578 L339.27,155.374 L349.031,155.374 L349.031,156.987 L337.524,156.987" fill="#FFFFFF"/>
      <path d="M352.899,143.491 L354.511,143.491 L354.511,156.986 L352.899,156.986 z M352.764,137.578 L354.646,137.578 L354.646,139.591 L352.764,139.591 z" fill="#FFFFFF"/>
      <path d="M360.936,156.987 L360.936,144.97 L358.219,144.97 L358.219,143.491 L360.936,143.491 L360.936,140.614 C360.936,138.302 361.878,137.255 364.189,137.255 C364.702,137.255 365.237,137.444 365.721,137.552 L365.721,138.84 C365.397,138.787 365.046,138.734 364.727,138.734 C362.521,138.734 362.467,139.834 362.548,141.772 L362.548,143.491 L365.613,143.491 L365.613,144.97 L362.548,144.97 L362.548,156.987 L360.936,156.987" fill="#FFFFFF"/>
      <path d="M369.537,149.135 C369.753,146.771 371.151,144.568 373.785,144.568 C376.58,144.568 377.978,146.53 378.166,149.135 L369.537,149.135 z M379.915,150.616 C379.915,146.393 378.274,143.087 373.757,143.087 C369.753,143.087 367.736,146.583 367.736,150.239 C367.736,153.922 369.618,157.39 373.651,157.39 C376.903,157.39 378.917,155.912 379.752,152.685 L378.059,152.685 C377.657,154.539 376.069,155.912 374.161,155.912 C370.854,155.912 369.537,153.492 369.485,150.616 L379.915,150.616" fill="#FFFFFF"/>
      <path d="M391.789,153.223 C391.789,149.834 396.575,150.266 398.86,150.185 C399.022,153.007 398.35,155.912 394.828,155.912 C393.187,155.912 391.789,155.051 391.789,153.223 z M398.86,148.706 C396.898,148.815 394.559,148.543 392.757,149.325 C391.145,149.997 390.042,151.395 390.042,153.223 C390.042,155.859 392.032,157.39 394.531,157.39 C396.36,157.39 398.16,156.315 398.753,155.184 L398.835,154.996 L398.888,154.996 L398.941,156.987 L400.607,156.987 C400.554,156.072 400.445,154.996 400.473,153.948 L400.473,147.549 C400.526,144.461 398.672,143.087 395.688,143.087 C393.108,143.087 391.039,144.136 390.635,146.905 L392.355,146.905 C392.568,145.077 393.967,144.568 395.66,144.568 C397.569,144.568 398.698,145.267 398.86,147.468 L398.86,148.706" fill="#FFFFFF"/>
      <path d="M406.818,156.987 L405.203,156.987 L405.203,146.53 C405.203,145.481 405.122,144.405 405.069,143.491 L406.737,143.491 L406.818,145.481 L406.872,145.534 C407.811,143.867 409.344,143.087 411.092,143.087 C415.5,143.087 415.849,146.986 415.849,148.543 L415.849,156.987 L414.236,156.987 L414.236,148.276 C414.236,145.938 412.892,144.568 410.689,144.568 C408.026,144.568 406.818,146.796 406.818,149.216 L406.818,156.987" fill="#FFFFFF"/>
      <path d="M429.803,149.916 C429.803,152.982 428.727,155.912 425.204,155.912 C422.113,155.912 421.387,152.497 421.387,149.997 C421.387,147.415 422.382,144.568 425.444,144.568 C428.592,144.568 429.803,147.173 429.803,149.916 z M429.938,156.987 L431.603,156.987 C431.549,156.072 431.468,154.996 431.468,153.948 L431.468,137.578 L429.857,137.578 L429.857,145.481 L429.803,145.534 C428.859,143.948 426.98,143.087 425.179,143.087 C421.171,143.087 419.64,146.69 419.64,150.185 C419.64,153.573 421.171,157.39 425.179,157.39 C427.059,157.39 428.699,156.501 429.803,154.889 L429.857,154.996 L429.938,156.987" fill="#FFFFFF"/>
      <path d="M443.337,156.987 L443.337,137.578 L445.086,137.578 L445.086,155.374 L454.843,155.374 L454.843,156.987 L443.337,156.987" fill="#FFFFFF"/>
      <path d="M458.902,149.135 C459.118,146.771 460.515,144.568 463.15,144.568 C465.945,144.568 467.342,146.53 467.532,149.135 L458.902,149.135 z M469.281,150.616 C469.281,146.393 467.638,143.087 463.123,143.087 C459.118,143.087 457.1,146.583 457.1,150.239 C457.1,153.922 458.983,157.39 463.015,157.39 C466.269,157.39 468.284,155.912 469.119,152.685 L467.423,152.685 C467.021,154.539 465.434,155.912 463.525,155.912 C460.22,155.912 458.902,153.492 458.848,150.616 L469.281,150.616" fill="#FFFFFF"/>
      <path d="M474.12,153.223 C474.12,149.834 478.903,150.266 481.188,150.185 C481.35,153.007 480.677,155.912 477.155,155.912 C475.516,155.912 474.12,155.051 474.12,153.223 z M481.188,148.706 C479.227,148.815 476.888,148.543 475.085,149.325 C473.472,149.997 472.372,151.395 472.372,153.223 C472.372,155.859 474.361,157.39 476.861,157.39 C478.689,157.39 480.49,156.315 481.082,155.184 L481.161,154.996 L481.213,154.996 L481.269,156.987 L482.935,156.987 C482.881,156.072 482.776,154.996 482.803,153.948 L482.803,147.549 C482.856,144.461 481,143.087 478.016,143.087 C475.435,143.087 473.366,144.136 472.962,146.905 L474.682,146.905 C474.898,145.077 476.298,144.568 477.989,144.568 C479.899,144.568 481.028,145.267 481.188,147.468 L481.188,148.706" fill="#FFFFFF"/>
      <path d="M489.306,156.987 L487.694,156.987 L487.694,146.53 C487.721,145.481 487.613,144.405 487.561,143.491 L489.227,143.491 L489.306,145.481 L489.362,145.481 C489.846,144.111 491.052,143.142 492.4,143.087 C492.936,143.063 493.474,143.087 494.012,143.114 L494.012,144.673 C493.688,144.648 493.34,144.568 493.017,144.568 C490.625,144.568 489.362,146.286 489.306,148.868 L489.306,156.987" fill="#FFFFFF"/>
      <path d="M499.119,156.987 L497.505,156.987 L497.505,146.53 C497.505,145.481 497.426,144.405 497.372,143.491 L499.038,143.491 L499.119,145.481 L499.171,145.534 C500.116,143.867 501.645,143.087 503.394,143.087 C507.802,143.087 508.153,146.986 508.153,148.543 L508.153,156.987 L506.538,156.987 L506.538,148.276 C506.538,145.938 505.193,144.568 502.99,144.568 C500.331,144.568 499.119,146.796 499.119,149.216 L499.119,156.987" fill="#FFFFFF"/>
      <path d="M512.883,143.491 L514.495,143.491 L514.495,156.986 L512.883,156.986 z M512.749,137.578 L514.63,137.578 L514.63,139.591 L512.749,139.591 z" fill="#FFFFFF"/>
      <path d="M520.893,156.987 L519.282,156.987 L519.282,146.53 C519.282,145.481 519.201,144.405 519.146,143.491 L520.815,143.491 L520.893,145.481 L520.95,145.534 C521.89,143.867 523.422,143.087 525.169,143.087 C529.578,143.087 529.927,146.986 529.927,148.543 L529.927,156.987 L528.315,156.987 L528.315,148.276 C528.315,145.938 526.969,144.568 524.766,144.568 C522.104,144.568 520.893,146.796 520.893,149.216 L520.893,156.987" fill="#FFFFFF"/>
      <path d="M544.06,149.942 C544.06,152.576 542.877,155.455 539.789,155.455 C536.828,155.455 535.563,152.47 535.563,149.997 C535.563,147.524 536.802,144.568 539.734,144.568 C542.635,144.568 544.06,147.361 544.06,149.942 z M544.06,145.481 L544.005,145.587 C542.93,144.029 541.536,143.087 539.573,143.087 C535.458,143.087 533.818,146.474 533.818,150.131 C533.818,153.841 535.563,156.931 539.625,156.931 C541.372,156.931 543.226,155.991 544.005,154.405 L544.06,154.405 L544.06,156.931 C544.005,159.19 542.071,160.669 539.972,160.669 C538.252,160.669 536.344,160.131 536.157,158.52 L534.411,158.52 C534.411,161.314 537.312,162.148 539.76,162.148 C541.023,162.148 541.748,162.041 542.825,161.528 C545.805,160.131 545.674,157.309 545.674,154.62 L545.674,146.53 C545.674,145.481 545.753,144.405 545.805,143.491 L544.14,143.491 L544.06,145.481" fill="#FFFFFF"/>
    </g>
  </g>
</svg>
